<svg width="41" height="33" viewBox="0 0 41 33" fill="none" xmlns="http://www.w3.org/2000/svg">
<path d="M2.03201 0.0168228H38.5871C38.9572 0.0180626 39.32 0.127056 39.6364 0.332077C39.9528 0.537098 40.2109 0.830378 40.3828 1.18035C40.5547 1.53032 40.634 1.92373 40.6121 2.31824C40.5902 2.71274 40.468 3.0934 40.2585 3.41924L21.981 31.6101C21.2235 32.7789 19.3998 32.7789 18.6402 31.6101L0.362655 3.41924C0.151092 3.09408 0.0270262 2.71323 0.00393765 2.31807C-0.0191509 1.92291 0.0596207 1.52855 0.231694 1.17783C0.403767 0.82712 0.662561 0.533464 0.979958 0.328777C1.29735 0.124088 1.66122 0.016201 2.03201 0.0168228Z" fill="#9DB2BF"/>
</svg>
