<svg width="50" height="44" viewBox="0 0 50 44" fill="none" xmlns="http://www.w3.org/2000/svg">
<path d="M42.8438 27.7656C41.5805 31.668 39.0724 35.0485 35.704 37.3889C32.3355 39.7294 28.2925 40.9008 24.1946 40.7234C20.0966 40.5461 16.1699 39.0299 13.0162 36.4072C9.8625 33.7845 7.65582 30.2 6.73438 26.2031L10.2812 25.5L3.53125 18.5156L0 27.5468L3.73438 26.8125C4.77731 31.5042 7.33637 35.7218 11.0161 38.8136C14.6958 41.9054 19.2914 43.6993 24.0926 43.918C28.8939 44.1367 33.6335 42.7681 37.5791 40.0237C41.5247 37.2793 44.4567 33.3118 45.9219 28.7343L42.8438 27.7656ZM46.3281 17.1875C45.2852 12.4958 42.7261 8.27814 39.0464 5.18634C35.3667 2.09453 30.7711 0.300662 25.9699 0.0819388C21.1686 -0.136784 16.429 1.23182 12.4834 3.97624C8.53776 6.72067 5.60582 10.6882 4.14062 15.2656L7.10938 16.2343C8.37263 12.332 10.8807 8.95148 14.2492 6.61099C17.6176 4.27051 21.6606 3.09917 25.7586 3.27649C29.8565 3.45381 33.7832 4.97002 36.9369 7.59272C40.0906 10.2154 42.2973 13.7999 43.2188 17.7968L39.6719 18.5L46.4219 25.4687L50 16.4531L46.3281 17.1875Z" fill="black"/>
</svg>
